<svg xmlns="http://www.w3.org/2000/svg" xmlns:xlink="http://www.w3.org/1999/xlink" width="1032" zoomAndPan="magnify" viewBox="0 0 774 761.999994" height="1016" preserveAspectRatio="xMidYMid meet" version="1.0"><path fill="#1f7a4d" d="M 610.523438 236.554688 C 613.976562 237.207031 619.410156 237.480469 625.664062 237.300781 C 637.402344 236.960938 646.808594 234.714844 657.363281 229.738281 C 668.921875 224.28125 674.492188 219.832031 692.058594 201.996094 C 708.746094 185.054688 756.304688 135.75 768.105469 123.171875 L 774.667969 116.175781 L 774.667969 762.324219 L 0 762.324219 L 0 688.300781 L 2.703125 685.71875 C 8.820312 679.871094 91.992188 594.554688 100.535156 585.367188 C 112.65625 572.320312 117.273438 569.007812 127.828125 565.75 C 143.417969 560.949219 160.445312 564.558594 171.800781 575.066406 C 177.101562 579.976562 180.570312 584.796875 185.46875 594.082031 C 187.292969 597.535156 189.589844 601 190.574219 601.773438 C 196.265625 606.257812 209.339844 599.808594 214.25 590.109375 C 217.246094 584.1875 216.675781 579.625 211.878906 571.082031 C 201.097656 551.871094 181.964844 536.671875 161.390625 530.972656 C 154.183594 528.976562 136.582031 528.242188 128.804688 529.617188 C 121.734375 530.855469 112.484375 533.796875 107.109375 536.5 C 94.054688 543.074219 86.007812 550.085938 55.921875 581.085938 C 44.363281 593 27.054688 610.820312 17.453125 620.683594 L 0 638.617188 L 0 -0.332031 L 647.402344 -0.332031 L 638.386719 8.847656 C 614.066406 33.617188 564.589844 85.339844 561.722656 88.992188 C 558.324219 93.324219 557.429688 97.371094 559.417969 99.414062 C 560.09375 100.109375 561.8125 100.246094 565.613281 99.914062 C 568.503906 99.660156 576.78125 99.210938 584.003906 98.917969 C 595.578125 98.445312 597.558594 98.167969 600.675781 96.636719 C 603.210938 95.382812 608.273438 90.636719 618.652344 79.746094 C 626.59375 71.414062 644.113281 53.285156 657.574219 39.453125 C 671.039062 25.625 685.152344 11.097656 688.945312 7.171875 L 695.835938 0.0429688 L 650.863281 -0.332031 L 774.667969 -0.332031 L 774.667969 113.601562 L 774.488281 91.457031 L 774.292969 66.753906 L 754.085938 87.824219 C 742.976562 99.40625 715.578125 127.644531 693.207031 150.578125 C 649.558594 195.332031 648.324219 196.417969 637.300781 200.105469 C 630.566406 202.355469 619.792969 202.875 612.976562 201.277344 C 600.015625 198.226562 592.46875 191.585938 576.820312 169.441406 C 574.988281 166.851562 571.21875 164.816406 568.230469 164.808594 C 563.171875 164.808594 556.363281 169.703125 552.625 176.03125 C 549.660156 181.0625 549.773438 188.230469 552.925781 194.835938 C 555.972656 201.214844 563.089844 210.695312 568.667969 215.792969 C 579.402344 225.605469 595.863281 233.769531 610.523438 236.554688 Z M 168.738281 653.496094 C 176.085938 655.046875 185.460938 655.320312 193.292969 654.199219 C 200.40625 653.195312 214.09375 648.742188 221.097656 645.164062 C 235.921875 637.582031 240.296875 633.480469 296.820312 574.285156 C 346.402344 522.363281 353.734375 514.675781 361.707031 513.964844 C 363.089844 513.835938 364.492188 513.925781 366.136719 514.023438 L 366.144531 514.023438 C 371.121094 514.332031 373.175781 514.941406 380.578125 518.304688 C 385.328125 520.464844 391.058594 522.710938 393.308594 523.300781 C 398.074219 524.542969 407.257812 524.667969 412.105469 523.558594 C 418.402344 522.117188 426.1875 517.753906 431.613281 512.644531 C 437.589844 507 440.414062 502.390625 443.578125 493.097656 C 446.199219 485.410156 448.203125 483.164062 454.238281 481.191406 C 462.902344 478.363281 469.199219 474.78125 474.664062 469.578125 C 481.058594 463.484375 484.21875 458.484375 487.605469 449.125 C 490.660156 440.648438 492.558594 438.734375 500.082031 436.511719 C 508.578125 434.003906 513.609375 430.949219 519.539062 424.710938 C 529.152344 414.585938 531.921875 405.667969 531.074219 387.535156 L 530.566406 376.429688 L 532.660156 372.144531 C 534.804688 367.753906 549.773438 352.011719 609.164062 291.667969 C 639.980469 260.359375 643.90625 255.472656 641.425781 251.507812 C 640.625 250.238281 639.753906 250.03125 635.699219 250.136719 C 633.074219 250.210938 624.996094 250.382812 617.753906 250.53125 C 604.894531 250.789062 604.488281 250.847656 600.132812 253.023438 C 594.820312 255.691406 589.84375 260.546875 554.335938 297.671875 C 515.230469 338.570312 508.21875 345.566406 504.59375 347.320312 C 498.632812 350.203125 497.003906 349.664062 465.640625 334.273438 C 426.074219 314.863281 409.394531 307.035156 404.652344 305.628906 C 395.765625 303.011719 387.738281 304.699219 382.058594 310.382812 C 379.300781 313.144531 376.464844 318.097656 367.929688 335.03125 C 362.058594 346.699219 356.195312 357.433594 354.914062 358.902344 C 352.089844 362.117188 347.691406 364.480469 344.546875 364.480469 C 339.539062 364.480469 334.253906 360.316406 332.492188 354.960938 C 330.34375 348.445312 332.949219 341.953125 354.117188 301.050781 C 367.546875 275.101562 369.347656 272.542969 376.78125 268.820312 C 382.582031 265.914062 386.898438 265.402344 411.730469 264.71875 C 438.332031 263.976562 440.464844 263.652344 450.761719 258.738281 C 459.320312 254.652344 466.566406 248.542969 478.957031 234.949219 C 508.503906 202.542969 539.769531 169.132812 549.03125 160.074219 C 554.570312 154.652344 561.648438 150.433594 568.992188 148.167969 C 576.878906 145.734375 587.539062 145.78125 594.765625 148.273438 C 606.777344 152.414062 612.394531 157.632812 621.21875 172.824219 C 623.898438 177.441406 627.277344 182.253906 628.71875 183.523438 C 633.949219 188.109375 641.675781 185.796875 648.558594 177.570312 C 654.714844 170.222656 655.449219 164.050781 651.214844 155.222656 C 643.996094 140.15625 631.609375 127.976562 615.15625 119.761719 C 595.058594 109.734375 570.882812 108.855469 550.996094 117.429688 C 543.101562 120.835938 533.621094 127.058594 527.179688 133.070312 C 518.75 140.9375 481.40625 181.414062 469.507812 195.570312 C 466.21875 199.488281 458.121094 208.128906 451.515625 214.78125 C 433.941406 232.464844 431.425781 233.53125 404.597656 234.648438 C 379.496094 235.699219 374.0625 236.722656 362.269531 242.636719 C 353.742188 246.90625 343.667969 258.265625 337.421875 270.648438 C 332.566406 280.28125 329.65625 282.300781 314.144531 286.78125 C 291.273438 293.386719 277.828125 301.027344 264.902344 314.765625 C 249.46875 331.167969 241.460938 349.722656 238.359375 376.222656 C 237.03125 387.601562 235.769531 392.269531 232.09375 399.386719 C 229.660156 404.109375 224.910156 409.152344 185.066406 449.3125 C 133.953125 500.828125 123.992188 511.796875 125.75 514.632812 C 125.996094 515.039062 130.238281 515.359375 135.351562 515.359375 C 140.378906 515.351562 148.785156 515.75 154.027344 516.238281 C 154.3125 516.269531 154.589844 516.292969 154.859375 516.320312 C 159.902344 516.792969 162.890625 517.070312 165.585938 516.304688 C 169.652344 515.144531 173.039062 511.59375 181.792969 502.691406 C 253.007812 430.246094 256.382812 426.597656 261.21875 417.027344 C 265.414062 408.714844 266.53125 403.4375 267.261719 388.390625 C 268.394531 364.871094 271.496094 354.414062 281.140625 341.496094 C 288.445312 331.722656 303 320.191406 308.050781 320.191406 C 310.128906 320.191406 310.191406 320.296875 309.746094 323.058594 C 309.5 324.636719 307.894531 329.621094 306.183594 334.132812 C 300.90625 348.042969 301.273438 359.082031 307.414062 371.273438 C 312.675781 381.738281 324.886719 390.777344 336.839844 393.050781 C 343.195312 394.265625 352.917969 393.605469 358.125 391.601562 C 371.121094 386.601562 377.5 380.011719 386.597656 362.207031 C 394.121094 347.472656 398.007812 341.398438 400.515625 340.445312 C 403.871094 339.167969 407.5625 339.632812 413.105469 342.050781 C 425.179688 347.3125 495.230469 382.398438 497.519531 384.34375 C 500.964844 387.261719 502.183594 390.011719 502.183594 394.875 C 502.183594 401.195312 500.109375 404.671875 494.929688 407.042969 C 491.1875 408.761719 490.390625 408.867188 486.90625 408.167969 C 484.558594 407.695312 471.78125 401.804688 454.375 393.164062 C 436.132812 384.101562 424.476562 378.742188 422.320312 378.421875 C 408.351562 376.324219 399.230469 392.839844 408.976562 402.582031 C 410.613281 404.226562 417.351562 407.996094 427.757812 413.085938 C 457.097656 427.453125 459.394531 429.308594 459.394531 438.644531 C 459.394531 446.4375 455.027344 450.910156 446.921875 451.429688 L 441.964844 451.742188 L 418.644531 440.199219 L 395.328125 428.660156 L 389.960938 428.660156 C 385.375 428.660156 384.152344 428.953125 381.480469 430.726562 C 373.769531 435.824219 373.265625 447.164062 380.472656 453.230469 C 381.6875 454.25 388.210938 458.09375 394.960938 461.773438 C 403.757812 466.5625 408.441406 469.625 411.542969 472.613281 C 415.8125 476.734375 415.859375 476.816406 415.859375 481.101562 C 415.859375 483.488281 415.476562 486.167969 415.019531 487.078125 C 412.097656 492.75 405.363281 495.777344 398.878906 494.328125 C 396.867188 493.871094 378.617188 485.183594 358.335938 475.011719 C 323.214844 457.394531 321.222656 456.503906 316.527344 456.203125 C 308.289062 455.675781 302.886719 459.324219 300.90625 466.742188 C 298.929688 474.121094 301.648438 478.714844 311.707031 484.996094 C 321.042969 490.835938 323.527344 493.066406 323.527344 495.582031 C 323.527344 497.179688 318.15625 502.976562 295.5 525.792969 C 265.429688 556.074219 237.769531 584.902344 227.714844 596.429688 C 220.683594 604.492188 216.058594 608.3125 207.929688 612.757812 C 191.65625 621.660156 179.164062 622.378906 164.023438 615.285156 C 153.792969 610.488281 146.789062 602.871094 139.207031 588.261719 C 134.417969 579.046875 129.710938 577.625 121.695312 582.980469 C 113.507812 588.449219 109.097656 595.507812 109.863281 601.957031 C 111.058594 612.066406 123.152344 628.886719 136.445312 638.945312 C 146.503906 646.558594 155.886719 650.785156 168.738281 653.496094 Z M 99.207031 727.605469 L 65.140625 762.324219 L 114.472656 762.292969 L 148.253906 727.695312 C 197.886719 676.871094 208.070312 666.046875 207.097656 665.191406 C 206.929688 665.046875 203.929688 665.550781 200.421875 666.308594 C 188.8125 668.800781 181.746094 669.402344 174.839844 668.476562 C 171.367188 668.019531 166.417969 667.449219 163.851562 667.214844 C 163.605469 667.195312 163.371094 667.171875 163.144531 667.148438 C 162.074219 667.042969 161.246094 666.960938 160.445312 667.074219 C 157.6875 667.457031 155.25 670.136719 143.765625 682.027344 C 137.992188 688 117.941406 708.507812 99.207031 727.605469 Z M 99.207031 727.605469 " fill-opacity="1" fill-rule="nonzero"/><path fill="#fafdfa" d="M 99.207031 727.605469 C 117.941406 708.507812 137.992188 688 143.765625 682.027344 C 159.265625 665.984375 158.289062 666.707031 163.851562 667.214844 C 166.417969 667.449219 171.367188 668.019531 174.839844 668.476562 C 181.746094 669.402344 188.8125 668.800781 200.421875 666.308594 C 203.929688 665.550781 206.929688 665.046875 207.097656 665.191406 C 208.070312 666.046875 197.886719 676.871094 148.253906 727.695312 L 114.472656 762.292969 L 89.808594 762.308594 L 65.140625 762.324219 Z M 0 663.464844 L 0 638.617188 L 17.453125 620.683594 C 27.054688 610.820312 44.363281 593 55.921875 581.085938 C 86.007812 550.085938 94.054688 543.074219 107.109375 536.5 C 112.484375 533.796875 121.734375 530.855469 128.804688 529.617188 C 136.582031 528.242188 154.183594 528.976562 161.390625 530.972656 C 181.964844 536.671875 201.097656 551.871094 211.878906 571.082031 C 216.675781 579.625 217.246094 584.1875 214.25 590.109375 C 209.339844 599.808594 196.265625 606.257812 190.574219 601.773438 C 189.589844 601 187.292969 597.535156 185.46875 594.082031 C 180.570312 584.796875 177.101562 579.976562 171.800781 575.066406 C 160.445312 564.558594 143.417969 560.949219 127.828125 565.75 C 117.273438 569.007812 112.65625 572.320312 100.535156 585.367188 C 91.992188 594.554688 8.820312 679.871094 2.703125 685.71875 L 0 688.300781 Z M 168.738281 653.496094 C 155.886719 650.785156 146.503906 646.558594 136.445312 638.945312 C 123.152344 628.886719 111.058594 612.066406 109.863281 601.957031 C 109.097656 595.507812 113.507812 588.449219 121.695312 582.980469 C 129.710938 577.625 134.417969 579.046875 139.207031 588.261719 C 146.789062 602.871094 153.792969 610.488281 164.023438 615.285156 C 179.164062 622.378906 191.65625 621.660156 207.929688 612.757812 C 216.058594 608.3125 220.683594 604.492188 227.714844 596.429688 C 237.769531 584.902344 265.429688 556.074219 295.5 525.792969 C 318.15625 502.976562 323.527344 497.179688 323.527344 495.582031 C 323.527344 493.066406 321.042969 490.835938 311.707031 484.996094 C 301.648438 478.714844 298.929688 474.121094 300.90625 466.742188 C 302.886719 459.324219 308.289062 455.675781 316.527344 456.203125 C 321.222656 456.503906 323.214844 457.394531 358.335938 475.011719 C 378.617188 485.183594 396.867188 493.871094 398.878906 494.328125 C 405.363281 495.777344 412.097656 492.75 415.019531 487.078125 C 415.476562 486.167969 415.859375 483.488281 415.859375 481.101562 C 415.859375 476.816406 415.8125 476.734375 411.542969 472.613281 C 408.441406 469.625 403.757812 466.5625 394.960938 461.773438 C 388.210938 458.09375 381.6875 454.25 380.472656 453.230469 C 373.265625 447.164062 373.769531 435.824219 381.480469 430.726562 C 384.152344 428.953125 385.375 428.660156 389.960938 428.660156 L 395.328125 428.660156 L 418.644531 440.199219 L 441.964844 451.742188 L 446.921875 451.429688 C 455.027344 450.910156 459.394531 446.4375 459.394531 438.644531 C 459.394531 429.308594 457.097656 427.453125 427.757812 413.085938 C 417.351562 407.996094 410.613281 404.226562 408.976562 402.582031 C 399.230469 392.839844 408.351562 376.324219 422.320312 378.421875 C 424.476562 378.742188 436.132812 384.101562 454.375 393.164062 C 471.78125 401.804688 484.558594 407.695312 486.90625 408.167969 C 490.390625 408.867188 491.1875 408.761719 494.929688 407.042969 C 500.109375 404.671875 502.183594 401.195312 502.183594 394.875 C 502.183594 390.011719 500.964844 387.261719 497.519531 384.34375 C 495.230469 382.398438 425.179688 347.3125 413.105469 342.050781 C 407.5625 339.632812 403.871094 339.167969 400.515625 340.445312 C 398.007812 341.398438 394.121094 347.472656 386.597656 362.207031 C 377.5 380.011719 371.121094 386.601562 358.125 391.601562 C 352.917969 393.605469 343.195312 394.265625 336.839844 393.050781 C 324.886719 390.777344 312.675781 381.738281 307.414062 371.273438 C 301.273438 359.082031 300.90625 348.042969 306.183594 334.132812 C 307.894531 329.621094 309.5 324.636719 309.746094 323.058594 C 310.191406 320.296875 310.128906 320.191406 308.050781 320.191406 C 303 320.191406 288.445312 331.722656 281.140625 341.496094 C 271.496094 354.414062 268.394531 364.871094 267.261719 388.390625 C 266.53125 403.4375 265.414062 408.714844 261.21875 417.027344 C 256.382812 426.597656 253.007812 430.246094 181.792969 502.691406 C 166.9375 517.800781 167.539062 517.5 154.027344 516.238281 C 148.785156 515.75 140.378906 515.351562 135.351562 515.359375 C 130.238281 515.359375 125.996094 515.039062 125.75 514.632812 C 123.992188 511.796875 133.953125 500.828125 185.066406 449.3125 C 224.910156 409.152344 229.660156 404.109375 232.09375 399.386719 C 235.769531 392.269531 237.03125 387.601562 238.359375 376.222656 C 241.460938 349.722656 249.46875 331.167969 264.902344 314.765625 C 277.828125 301.027344 291.273438 293.386719 314.144531 286.78125 C 329.65625 282.300781 332.566406 280.28125 337.421875 270.648438 C 343.667969 258.265625 353.742188 246.90625 362.269531 242.636719 C 374.0625 236.722656 379.496094 235.699219 404.597656 234.648438 C 431.425781 233.53125 433.941406 232.464844 451.515625 214.78125 C 458.121094 208.128906 466.21875 199.488281 469.507812 195.570312 C 481.40625 181.414062 518.75 140.9375 527.179688 133.070312 C 533.621094 127.058594 543.101562 120.835938 550.996094 117.429688 C 570.882812 108.855469 595.058594 109.734375 615.15625 119.761719 C 631.609375 127.976562 643.996094 140.15625 651.214844 155.222656 C 655.449219 164.050781 654.714844 170.222656 648.558594 177.570312 C 641.675781 185.796875 633.949219 188.109375 628.71875 183.523438 C 627.277344 182.253906 623.898438 177.441406 621.21875 172.824219 C 612.394531 157.632812 606.777344 152.414062 594.765625 148.273438 C 587.539062 145.78125 576.878906 145.734375 568.992188 148.167969 C 561.648438 150.433594 554.570312 154.652344 549.03125 160.074219 C 539.769531 169.132812 508.503906 202.542969 478.957031 234.949219 C 466.566406 248.542969 459.320312 254.652344 450.761719 258.738281 C 440.464844 263.652344 438.332031 263.976562 411.730469 264.71875 C 386.898438 265.402344 382.582031 265.914062 376.78125 268.820312 C 369.347656 272.542969 367.546875 275.101562 354.117188 301.050781 C 332.949219 341.953125 330.34375 348.445312 332.492188 354.960938 C 334.253906 360.316406 339.539062 364.480469 344.546875 364.480469 C 347.691406 364.480469 352.089844 362.117188 354.914062 358.902344 C 356.195312 357.433594 362.058594 346.699219 367.929688 335.03125 C 376.464844 318.097656 379.300781 313.144531 382.058594 310.382812 C 387.738281 304.699219 395.765625 303.011719 404.652344 305.628906 C 409.394531 307.035156 426.074219 314.863281 465.640625 334.273438 C 497.003906 349.664062 498.632812 350.203125 504.59375 347.320312 C 508.21875 345.566406 515.230469 338.570312 554.335938 297.671875 C 589.84375 260.546875 594.820312 255.691406 600.132812 253.023438 C 604.488281 250.847656 604.894531 250.789062 617.753906 250.53125 C 624.996094 250.382812 633.074219 250.210938 635.699219 250.136719 C 639.753906 250.03125 640.625 250.238281 641.425781 251.507812 C 643.90625 255.472656 639.980469 260.359375 609.164062 291.667969 C 549.773438 352.011719 534.804688 367.753906 532.660156 372.144531 L 530.566406 376.429688 L 531.074219 387.535156 C 531.921875 405.667969 529.152344 414.585938 519.539062 424.710938 C 513.609375 430.949219 508.578125 434.003906 500.082031 436.511719 C 492.558594 438.734375 490.660156 440.648438 487.605469 449.125 C 484.21875 458.484375 481.058594 463.484375 474.664062 469.578125 C 469.199219 474.78125 462.902344 478.363281 454.238281 481.191406 C 448.203125 483.164062 446.199219 485.410156 443.578125 493.097656 C 440.414062 502.390625 437.589844 507 431.613281 512.644531 C 426.1875 517.753906 418.402344 522.117188 412.105469 523.558594 C 407.257812 524.667969 398.074219 524.542969 393.308594 523.300781 C 391.058594 522.710938 385.328125 520.464844 380.578125 518.304688 C 373.175781 514.941406 371.121094 514.332031 366.144531 514.023438 C 355.011719 513.339844 355.019531 513.332031 296.820312 574.285156 C 240.296875 633.480469 235.921875 637.582031 221.097656 645.164062 C 214.09375 648.742188 200.40625 653.195312 193.292969 654.199219 C 185.460938 655.320312 176.085938 655.046875 168.738281 653.496094 Z M 610.523438 236.554688 C 595.863281 233.769531 579.402344 225.605469 568.667969 215.792969 C 563.089844 210.695312 555.972656 201.214844 552.925781 194.835938 C 549.773438 188.230469 549.660156 181.0625 552.625 176.03125 C 556.363281 169.703125 563.171875 164.808594 568.230469 164.808594 C 571.21875 164.816406 574.988281 166.851562 576.820312 169.441406 C 592.46875 191.585938 600.015625 198.226562 612.976562 201.277344 C 619.792969 202.875 630.566406 202.355469 637.300781 200.105469 C 648.324219 196.417969 649.558594 195.332031 693.207031 150.578125 C 715.578125 127.644531 742.976562 99.40625 754.085938 87.824219 L 774.292969 66.753906 L 774.488281 91.457031 L 774.691406 116.152344 L 768.105469 123.171875 C 756.304688 135.75 708.746094 185.054688 692.058594 201.996094 C 674.492188 219.832031 668.921875 224.28125 657.363281 229.738281 C 646.808594 234.714844 637.402344 236.960938 625.664062 237.300781 C 619.410156 237.480469 613.976562 237.207031 610.523438 236.554688 Z M 559.417969 99.414062 C 557.429688 97.371094 558.324219 93.324219 561.722656 88.992188 C 564.589844 85.339844 614.066406 33.617188 638.386719 8.847656 L 647.433594 -0.363281 L 671.632812 -0.160156 L 695.835938 0.0429688 L 688.945312 7.171875 C 685.152344 11.097656 671.039062 25.625 657.574219 39.453125 C 644.113281 53.285156 626.59375 71.414062 618.652344 79.746094 C 608.273438 90.636719 603.210938 95.382812 600.675781 96.636719 C 597.558594 98.167969 595.578125 98.445312 584.003906 98.917969 C 576.78125 99.210938 568.503906 99.660156 565.613281 99.914062 C 561.8125 100.246094 560.09375 100.109375 559.417969 99.414062 Z M 559.417969 99.414062 " fill-opacity="1" fill-rule="nonzero"/></svg>